PathFileType	4	(X/Y/Z)	Patient5_TMGait_0pt45_1_right_05.trc.trc
DataRate	CameraRate	NumFrames	NumMarkers	Units	OrigDataRate	OrigDataStartFrame	OrigNumFrames
59.829059829060	59.829059829060	4	32	mm	59.829059829060	124	       141
Frame#	Time	R.ASIS			L.ASIS			Chest			R.Shoulder			Neck			L.Shoulder			L.Elbow			L.Wrist			R.Elbow			R.Wrist			L.Thigh.Superior			L.Thigh.Lateral			L.Thigh.Inferior			L.Patella			L.Shank.Superior			L.Shank.Lateral			L.Shank.Inferior			L.Heel			L.Midfoot.Lateral			L.Midfoot.Superior			L.Toe			R.Thigh.Superior			R.Thigh.Lateral			R.Thigh.Inferior			R.Patella			R.Shank.Superior			R.Shank.Lateral			R.Shank.Inferior			R.Heel			R.Midfoot.Lateral			R.Midfoot.Superior			R.Toe			
		X1	Y1	Z1	X2	Y2	Z2	X3	Y3	Z3	X4	Y4	Z4	X5	Y5	Z5	X6	Y6	Z6	X7	Y7	Z7	X8	Y8	Z8	X9	Y9	Z9	X10	Y10	Z10	X11	Y11	Z11	X12	Y12	Z12	X13	Y13	Z13	X14	Y14	Z14	X15	Y15	Z15	X16	Y16	Z16	X17	Y17	Z17	X18	Y18	Z18	X19	Y19	Z19	X20	Y20	Z20	X21	Y21	Z21	X22	Y22	Z22	X23	Y23	Z23	X24	Y24	Z24	X25	Y25	Z25	X26	Y26	Z26	X27	Y27	Z27	X28	Y28	Z28	X29	Y29	Z29	X30	Y30	Z30	X31	Y31	Z31	X32	Y32	Z32	

124	9.985857142857	974.424602162986	977.105921258129	550.376896190792	955.669755208581	950.469751097359	305.396617349193	1012.228249130353	1428.025890933335	443.710348659574	908.549132823587	1487.336892460930	610.192396033011	887.411644104722	1548.843890564522	427.344917614117	952.415266475641	1495.947742807656	247.659034728267	898.986495983439	1177.139503430433	109.872996430885	1030.416282586756	920.094603435088	102.182412610675	814.337752245149	1170.304010457869	747.782045456329	1024.429498883615	978.680129947594	688.996765060368	929.234955264174	722.171432025544	305.468974301150	834.248267343664	668.395695452107	273.093817790362	893.461889490062	595.521942428905	328.657347334085	854.132184945771	479.705377588345	335.008354424825	787.362907246878	391.841266959807	362.484195155601	695.850472472407	343.394133081751	294.116927216797	727.980928584961	281.680855421274	379.688885067674	547.049759604113	66.557611334301	390.104542940736	631.259565461213	35.492477285624	327.753108949072	732.764676256958	90.029752051470	363.566067100806	835.075227073688	44.255517032313	367.522664971666	1024.273973332307	753.642788229140	577.774190959031	958.745417150124	663.729533244210	634.450509856096	1048.396210061138	628.165095016681	561.099982839179	1070.241394701679	532.436094687038	595.595574018838	1042.542760764974	425.873601540055	557.583450107412	972.818992549248	349.447147429081	633.794600448403	1039.272253346318	285.358090629926	555.919456047767	941.482991626726	56.976059210097	517.749998534975	1019.145635911925	24.829999116506	590.541794859026	1121.928815726393	95.914232271932	579.527901361095	1227.494162578066	56.447412018432	578.784807114245	
125	10.002571428571	976.494830515533	973.624920716052	552.294129821116	957.704338760342	949.021148505135	308.039781985979	1014.132478565543	1426.508574581662	447.723257613832	911.983010303412	1484.712541505778	615.399542030928	888.737745158414	1547.046236940383	432.987546259698	951.392268143878	1494.746450394055	252.248187638641	893.661488952621	1177.300639040407	113.180718468151	1021.084966209749	918.241915585942	101.782487620036	821.003021245564	1166.199267196618	752.348244121970	1030.930400707422	975.146686766574	691.250463655042	931.043617922045	720.693222925553	307.604701726993	835.990069912824	666.947021116085	274.974194305113	895.436718716145	593.915627775314	330.253004177400	855.238384934209	476.624149301533	336.133391279071	786.600695693760	389.876377244267	363.411881011959	694.261716619636	343.327659105284	294.743009149454	724.751582476241	281.093448694075	380.500584281332	539.915392220833	68.569519636615	390.121227404210	624.002497748296	36.767575772532	327.798369061394	725.951086739089	90.272165666649	363.523667771893	827.604809167958	44.226305908590	367.466755335140	1024.068746234640	749.710283507555	578.798311598071	957.205975243251	660.318129777187	634.591594137564	1046.423959558987	624.222046346355	560.736012718147	1066.969567947192	528.025181429186	593.961834537403	1038.547584668111	422.175681018873	555.412197063069	969.013599636383	345.780096927419	631.778979388563	1034.468295235047	281.702247286150	553.038743510688	935.000018904199	54.051966481359	514.418210588431	1011.980592301110	23.384990552530	588.336512311205	1115.782610838502	92.554577518511	574.729298120979	1220.928923522738	51.565012403049	575.481434954248	
126	10.019285714286	977.971839383127	970.901957595112	554.346958740094	959.690519184724	948.120433470687	310.988785478857	1016.315828491109	1425.462282662786	451.895876679212	915.647948609231	1482.725550996744	620.622585694158	890.564627027681	1545.891799493408	438.593286527342	950.916437081419	1494.075332431137	256.923302268666	888.427941005308	1177.974141020016	116.977179345535	1011.596929363027	916.971581541607	101.701242073931	828.077937639918	1162.574315782366	756.648402093916	1037.621624746748	971.799239218023	693.447110544068	933.596017488806	719.775029915055	310.078807907992	838.832562547365	665.716971499007	276.838458246245	898.631267019011	592.754444846219	331.987366164628	857.906780122384	473.468288532662	337.042603066370	787.075562556466	388.020023066367	364.051717257352	693.885916651148	343.611325447337	295.024316482548	722.466347800168	280.758379766092	380.870326970210	533.150420596252	71.705058203208	389.972107138404	616.975543475621	38.588202944029	327.772128188115	719.643703228156	90.574334695141	363.344179381877	820.214775471032	44.178896465567	367.429932387048	1024.263922613766	747.361294897837	580.221541571211	956.717045274083	658.293203556331	635.342781062173	1045.574012330024	621.925866804147	561.011444086564	1065.085722251677	525.186434833136	593.013768250666	1035.504985374226	419.790959750262	554.078581880059	966.250511220776	343.658188809810	630.928278793550	1030.151829534602	279.381854638115	551.053403743113	928.209621107101	52.375744869849	512.245752019935	1004.690015026597	22.990639458685	587.044317288061	1109.440275114854	90.382791935210	571.013196539239	1214.161295264736	47.984383520290	572.982930107956	
127	10.036000000000	979.024939746147	969.126996486770	556.746770854100	961.521679299089	947.910220582766	314.209310232452	1018.752408318749	1424.990958252186	456.196007575090	919.507145795765	1481.541405174082	625.810369214985	892.872875636834	1545.501833972483	444.096261773792	951.098885711543	1494.082360592471	261.648912491964	883.316714763085	1179.341823031380	121.272562225547	1001.961418482940	916.461206866806	102.017417667188	835.484014476665	1159.709482028305	760.726790867983	1044.452321031152	968.975169735842	695.501814449517	936.829792769586	719.561763526129	312.691067839115	842.749013434663	664.857158518595	278.506553055009	903.069140108699	592.172087545998	333.598529942892	862.280971139300	470.403105615829	337.392539620178	788.952375192932	386.415027378567	364.145502203398	694.833490635812	344.406452702143	294.806224661421	721.328565029738	280.860999555750	380.643097170747	526.959316882871	76.325623585391	389.585817905041	610.256780681492	41.122312668468	327.638961026603	713.976909282587	90.920462778344	362.953762883585	812.886841878433	44.105903174568	367.416132868113	1024.910516152197	746.431975436927	582.264535258644	957.045508421165	657.478107271061	636.720515861920	1045.785032512157	621.033429588196	562.173479283387	1064.335416227593	523.674992955442	593.047040066388	1033.275314470196	418.526580196437	553.746834820049	964.193630670054	342.869555706912	631.228324542410	1026.227282118887	278.212949512149	550.104506285812	921.161116618699	51.749366260086	511.150845053590	997.343121479365	23.264945858399	586.508756633994	1102.881785980924	89.187775760473	568.559717264269	1207.211972075159	45.632294395570	571.344503771499	
